<?xml version="1.0" encoding="utf-8" ?>
<svg baseProfile="full" height="6" version="1.1" width="35" xmlns="http://www.w3.org/2000/svg" xmlns:ev="http://www.w3.org/2001/xml-events" xmlns:xlink="http://www.w3.org/1999/xlink"><defs /><rect fill="lightblue" height="50" width="30" x="0" y="0" /><rect fill="lightblue" height="50" width="30" x="35" y="0" /><rect fill="lightblue" height="50" width="30" x="70" y="0" /><rect fill="lightblue" height="50" width="30" x="105" y="0" /><rect fill="lightblue" height="50" width="30" x="140" y="0" /><rect fill="lightblue" height="50" width="30" x="175" y="0" /><rect fill="lightblue" height="50" width="30" x="210" y="0" /><rect fill="lightblue" height="50" width="30" x="245" y="0" /><rect fill="lightblue" height="50" width="30" x="280" y="0" /><rect fill="lightblue" height="50" width="30" x="315" y="0" /><text font-family="Arial" font-size="1" x="0" y="1">a</text><text font-family="Arial" font-size="1" x="0.55" y="1">a</text><text font-family="Arial" font-size="1" x="0.8479797979797989" y="1">a</text><text font-family="Arial" font-size="1" x="1.1459595959595976" y="1">a</text><text font-family="Arial" font-size="1" x="1.4439393939393965" y="1">a</text><text font-family="Arial" font-size="1" x="1.7419191919191952" y="1">a</text><text font-family="Arial" font-size="1" x="2.039898989898994" y="1">a</text><text font-family="Arial" font-size="1" x="2.3378787878787923" y="1">a</text><text font-family="Arial" font-size="1" x="2.635858585858591" y="1">a</text><text font-family="Arial" font-size="1" x="2.9338383838383897" y="1">a</text><text font-family="Arial" font-size="1" x="3.231818181818188" y="1">a</text><text font-family="Arial" font-size="1" x="3.529797979797987" y="1">a</text><text font-family="Arial" font-size="1" x="3.8277777777777855" y="1">a</text><text font-family="Arial" font-size="1" x="4.125757575757584" y="1">a</text><text font-family="Arial" font-size="1" x="4.423737373737383" y="1">a</text><text font-family="Arial" font-size="1" x="4.721717171717183" y="1">a</text><text font-family="Arial" font-size="1" x="5.019696969696983" y="1">a</text><text font-family="Arial" font-size="1" x="5.317676767676782" y="1">a</text><text font-family="Arial" font-size="1" x="5.6156565656565816" y="1">a</text><text font-family="Arial" font-size="1" x="5.913636363636381" y="1">a</text><text font-family="Arial" font-size="1" x="6.211616161616181" y="1">a</text><text font-family="Arial" font-size="1" x="6.5095959595959805" y="1">a</text><text font-family="Arial" font-size="1" x="6.80757575757578" y="1">a</text><text font-family="Arial" font-size="1" x="7.105555555555579" y="1">a</text><text font-family="Arial" font-size="1" x="7.4035353535353785" y="1">a</text><text font-family="Arial" font-size="1" x="7.701515151515178" y="1">a</text><text font-family="Arial" font-size="1" x="7.999494949494978" y="1">a</text><text font-family="Arial" font-size="1" x="8.297474747474777" y="1">a</text><text font-family="Arial" font-size="1" x="8.595454545454576" y="1">a</text><text font-family="Arial" font-size="1" x="8.893434343434375" y="1">a</text><text font-family="Arial" font-size="1" x="9.191414141414175" y="1">a</text><text font-family="Arial" font-size="1" x="9.489393939393976" y="1">a</text><text font-family="Arial" font-size="1" x="9.787373737373775" y="1">a</text><text font-family="Arial" font-size="1" x="10.085353535353574" y="1">a</text><text font-family="Arial" font-size="1" x="10.383333333333374" y="1">a</text><text font-family="Arial" font-size="1" x="10.681313131313173" y="1">a</text><text font-family="Arial" font-size="1" x="10.979292929292972" y="1">a</text><text font-family="Arial" font-size="1" x="11.277272727272772" y="1">a</text><text font-family="Arial" font-size="1" x="11.575252525252571" y="1">a</text><text font-family="Arial" font-size="1" x="11.873232323232372" y="1">a</text><text font-family="Arial" font-size="1" x="12.171212121212172" y="1">a</text><text font-family="Arial" font-size="1" x="12.469191919191971" y="1">a</text><text font-family="Arial" font-size="1" x="12.76717171717177" y="1">a</text><text font-family="Arial" font-size="1" x="13.06515151515157" y="1">a</text><text font-family="Arial" font-size="1" x="13.363131313131369" y="1">a</text><text font-family="Arial" font-size="1" x="13.661111111111168" y="1">a</text><text font-family="Arial" font-size="1" x="13.959090909090968" y="1">a</text><text font-family="Arial" font-size="1" x="14.257070707070767" y="1">a</text><text font-family="Arial" font-size="1" x="14.555050505050566" y="1">a</text><text font-family="Arial" font-size="1" x="14.853030303030366" y="1">a</text><text font-family="Arial" font-size="1" x="15.151010101010167" y="1">a</text><text font-family="Arial" font-size="1" x="15.448989898989966" y="1">a</text><text font-family="Arial" font-size="1" x="15.746969696969765" y="1">a</text><text font-family="Arial" font-size="1" x="16.044949494949563" y="1">a</text><text font-family="Arial" font-size="1" x="16.342929292929362" y="1">a</text><text font-family="Arial" font-size="1" x="16.64090909090916" y="1">a</text><text font-family="Arial" font-size="1" x="16.93888888888896" y="1">a</text><text font-family="Arial" font-size="1" x="17.23686868686876" y="1">a</text><text font-family="Arial" font-size="1" x="17.53484848484856" y="1">a</text><text font-family="Arial" font-size="1" x="17.83282828282836" y="1">a</text><text font-family="Arial" font-size="1" x="18.13080808080816" y="1">a</text><text font-family="Arial" font-size="1" x="18.428787878787954" y="1">a</text><text font-family="Arial" font-size="1" x="18.72676767676775" y="1">a</text><text font-family="Arial" font-size="1" x="19.024747474747546" y="1">a</text><text font-family="Arial" font-size="1" x="19.32272727272734" y="1">a</text><text font-family="Arial" font-size="1" x="19.620707070707137" y="1">a</text><text font-family="Arial" font-size="1" x="19.918686868686933" y="1">a</text><text font-family="Arial" font-size="1" x="20.21666666666673" y="1">a</text><text font-family="Arial" font-size="1" x="20.514646464646525" y="1">a</text><text font-family="Arial" font-size="1" x="20.81262626262632" y="1">a</text><text font-family="Arial" font-size="1" x="21.110606060606116" y="1">a</text><text font-family="Arial" font-size="1" x="21.408585858585912" y="1">a</text><text font-family="Arial" font-size="1" x="21.706565656565708" y="1">a</text><text font-family="Arial" font-size="1" x="22.004545454545504" y="1">a</text><text font-family="Arial" font-size="1" x="22.3025252525253" y="1">a</text><text font-family="Arial" font-size="1" x="22.600505050505095" y="1">a</text><text font-family="Arial" font-size="1" x="22.898484848484895" y="1">a</text><text font-family="Arial" font-size="1" x="23.19646464646469" y="1">a</text><text font-family="Arial" font-size="1" x="23.494444444444486" y="1">a</text><text font-family="Arial" font-size="1" x="23.792424242424282" y="1">a</text><text font-family="Arial" font-size="1" x="24.090404040404078" y="1">a</text><text font-family="Arial" font-size="1" x="24.388383838383874" y="1">a</text><text font-family="Arial" font-size="1" x="24.68636363636367" y="1">a</text><text font-family="Arial" font-size="1" x="24.984343434343465" y="1">a</text><text font-family="Arial" font-size="1" x="25.28232323232326" y="1">a</text><text font-family="Arial" font-size="1" x="25.580303030303057" y="1">a</text><text font-family="Arial" font-size="1" x="25.878282828282853" y="1">a</text><text font-family="Arial" font-size="1" x="26.17626262626265" y="1">a</text><text font-family="Arial" font-size="1" x="26.474242424242444" y="1">a</text><text font-family="Arial" font-size="1" x="26.77222222222224" y="1">a</text><text font-family="Arial" font-size="1" x="27.070202020202036" y="1">a</text><text font-family="Arial" font-size="1" x="27.36818181818183" y="1">a</text><text font-family="Arial" font-size="1" x="27.666161616161627" y="1">a</text><text font-family="Arial" font-size="1" x="27.964141414141423" y="1">a</text><text font-family="Arial" font-size="1" x="28.26212121212122" y="1">a</text><text font-family="Arial" font-size="1" x="28.560101010101015" y="1">a</text><text font-family="Arial" font-size="1" x="28.85808080808081" y="1">a</text><text font-family="Arial" font-size="1" x="29.156060606060606" y="1">a</text><text font-family="Arial" font-size="1" x="29.454040404040406" y="1">a</text><text font-family="Arial" font-size="1" x="29.7520202020202" y="1">a</text><text font-family="Arial" font-size="1" x="0" y="2.05"> </text><text font-family="Arial" font-size="1" x="0.05" y="2.05">a</text><text font-family="Arial" font-size="1" x="0.6000000000000001" y="2.05">a</text><text font-family="Arial" font-size="1" x="1.1500000000000001" y="2.05">a</text><text font-family="Arial" font-size="1" x="1.7000000000000002" y="2.05">a</text><text font-family="Arial" font-size="1" x="2.25" y="2.05">a</text><text font-family="Arial" font-size="1" x="2.8" y="2.05">a</text><text font-family="Arial" font-size="1" x="3.3499999999999996" y="2.05">a</text><text font-family="Arial" font-size="1" x="3.8999999999999995" y="2.05">a</text><text font-family="Arial" font-size="1" x="4.449999999999999" y="2.05">a</text><text font-family="Arial" font-size="1" x="4.999999999999999" y="2.05">a</text><text font-family="Arial" font-size="1" x="5.549999999999999" y="2.05">a</text><text font-family="Arial" font-size="1" x="6.099999999999999" y="2.05">a</text><text font-family="Arial" font-size="1" x="6.649999999999999" y="2.05">a</text><text font-family="Arial" font-size="1" x="7.199999999999998" y="2.05">a</text><text font-family="Arial" font-size="1" x="7.749999999999998" y="2.05">a</text><text font-family="Arial" font-size="1" x="8.299999999999999" y="2.05">a</text><text font-family="Arial" font-size="1" x="8.85" y="2.05">a</text><text font-family="Arial" font-size="1" x="9.4" y="2.05">a</text><text font-family="Arial" font-size="1" x="9.950000000000001" y="2.05">a</text><text font-family="Arial" font-size="1" x="10.500000000000002" y="2.05">a</text><text font-family="Arial" font-size="1" x="11.050000000000002" y="2.05">a</text><text font-family="Arial" font-size="1" x="11.600000000000003" y="2.05">a</text><text font-family="Arial" font-size="1" x="12.150000000000004" y="2.05">a</text><text font-family="Arial" font-size="1" x="12.700000000000005" y="2.05">a</text><text font-family="Arial" font-size="1" x="13.250000000000005" y="2.05">a</text><text font-family="Arial" font-size="1" x="13.800000000000006" y="2.05">a</text><text font-family="Arial" font-size="1" x="14.350000000000007" y="2.05">a</text><text font-family="Arial" font-size="1" x="14.900000000000007" y="2.05">a</text><text font-family="Arial" font-size="1" x="15.450000000000008" y="2.05">a</text><text font-family="Arial" font-size="1" x="16.000000000000007" y="2.05">a</text><text font-family="Arial" font-size="1" x="16.550000000000008" y="2.05">a</text><text font-family="Arial" font-size="1" x="17.10000000000001" y="2.05">a</text><text font-family="Arial" font-size="1" x="17.65000000000001" y="2.05">a</text><text font-family="Arial" font-size="1" x="18.20000000000001" y="2.05">a</text><text font-family="Arial" font-size="1" x="18.75000000000001" y="2.05">a</text><text font-family="Arial" font-size="1" x="19.30000000000001" y="2.05">a</text><text font-family="Arial" font-size="1" x="19.850000000000012" y="2.05">a</text><text font-family="Arial" font-size="1" x="20.400000000000013" y="2.05">a</text><text font-family="Arial" font-size="1" x="20.950000000000014" y="2.05">a</text><text font-family="Arial" font-size="1" x="21.500000000000014" y="2.05">a</text><text font-family="Arial" font-size="1" x="22.050000000000015" y="2.05">a</text><text font-family="Arial" font-size="1" x="22.600000000000016" y="2.05">a</text><text font-family="Arial" font-size="1" x="23.150000000000016" y="2.05">a</text><text font-family="Arial" font-size="1" x="23.700000000000017" y="2.05">a</text><text font-family="Arial" font-size="1" x="24.250000000000018" y="2.05">a</text><text font-family="Arial" font-size="1" x="24.80000000000002" y="2.05">a</text><text font-family="Arial" font-size="1" x="25.35000000000002" y="2.05">a</text><text font-family="Arial" font-size="1" x="25.90000000000002" y="2.05">a</text><text font-family="Arial" font-size="1" x="26.45000000000002" y="2.05">a</text><text font-family="Arial" font-size="1" x="27.00000000000002" y="2.05">a</text><text font-family="Arial" font-size="1" x="27.550000000000022" y="2.05">a</text><text font-family="Arial" font-size="1" x="28.100000000000023" y="2.05">a</text><text font-family="Arial" font-size="1" x="28.650000000000023" y="2.05">a</text><text font-family="Arial" font-size="1" x="29.200000000000024" y="2.05">a</text><text font-family="Arial" font-size="1" x="29.750000000000025" y="2.05">a</text><text font-family="Arial" font-size="1" x="30.300000000000026" y="2.05">a</text><text font-family="Arial" font-size="1" x="30.850000000000026" y="2.05">a</text><text font-family="Arial" font-size="1" x="31.400000000000027" y="2.05">a</text><text font-family="Arial" font-size="1" x="31.950000000000028" y="2.05">a</text><text font-family="Arial" font-size="1" x="32.50000000000003" y="2.05">a</text><text font-family="Arial" font-size="1" x="33.050000000000026" y="2.05">a</text><text font-family="Arial" font-size="1" x="33.60000000000002" y="2.05">a</text><text font-family="Arial" font-size="1" x="34.15000000000002" y="2.05">a</text><text font-family="Arial" font-size="1" x="34.70000000000002" y="2.05">a</text><text font-family="Arial" font-size="1" x="35.250000000000014" y="2.05">a</text><text font-family="Arial" font-size="1" x="35.80000000000001" y="2.05">a</text><text font-family="Arial" font-size="1" x="36.35000000000001" y="2.05">a</text><text font-family="Arial" font-size="1" x="36.900000000000006" y="2.05">a</text><text font-family="Arial" font-size="1" x="37.45" y="2.05">a</text><text font-family="Arial" font-size="1" x="38.0" y="2.05">a</text><text font-family="Arial" font-size="1" x="38.55" y="2.05">a</text><text font-family="Arial" font-size="1" x="39.099999999999994" y="2.05">a</text><text font-family="Arial" font-size="1" x="39.64999999999999" y="2.05">a</text><text font-family="Arial" font-size="1" x="40.19999999999999" y="2.05">a</text><text font-family="Arial" font-size="1" x="40.749999999999986" y="2.05">a</text><text font-family="Arial" font-size="1" x="41.29999999999998" y="2.05">a</text><text font-family="Arial" font-size="1" x="41.84999999999998" y="2.05">a</text><text font-family="Arial" font-size="1" x="42.39999999999998" y="2.05">a</text><text font-family="Arial" font-size="1" x="42.949999999999974" y="2.05">a</text><text font-family="Arial" font-size="1" x="43.49999999999997" y="2.05">a</text><text font-family="Arial" font-size="1" x="44.04999999999997" y="2.05">a</text><text font-family="Arial" font-size="1" x="44.599999999999966" y="2.05">a</text><text font-family="Arial" font-size="1" x="45.14999999999996" y="2.05">a</text><text font-family="Arial" font-size="1" x="45.69999999999996" y="2.05">a</text><text font-family="Arial" font-size="1" x="46.24999999999996" y="2.05">a</text><text font-family="Arial" font-size="1" x="46.799999999999955" y="2.05">a</text><text font-family="Arial" font-size="1" x="47.34999999999995" y="2.05">a</text><text font-family="Arial" font-size="1" x="47.89999999999995" y="2.05">a</text><text font-family="Arial" font-size="1" x="48.449999999999946" y="2.05">a</text><text font-family="Arial" font-size="1" x="48.99999999999994" y="2.05">a</text><text font-family="Arial" font-size="1" x="49.54999999999994" y="2.05">a</text><text font-family="Arial" font-size="1" x="50.09999999999994" y="2.05">a</text><text font-family="Arial" font-size="1" x="50.649999999999935" y="2.05">a</text><text font-family="Arial" font-size="1" x="51.19999999999993" y="2.05">a</text><text font-family="Arial" font-size="1" x="51.74999999999993" y="2.05">a</text><text font-family="Arial" font-size="1" x="52.299999999999926" y="2.05">a</text><text font-family="Arial" font-size="1" x="52.84999999999992" y="2.05">a</text><text font-family="Arial" font-size="1" x="53.39999999999992" y="2.05">a</text><text font-family="Arial" font-size="1" x="53.94999999999992" y="2.05">a</text></svg>