<?xml version="1.0" encoding="utf-8" ?>
<svg baseProfile="full" height="6" version="1.1" width="35" xmlns="http://www.w3.org/2000/svg" xmlns:ev="http://www.w3.org/2001/xml-events" xmlns:xlink="http://www.w3.org/1999/xlink"><defs /><rect fill="lightblue" height="50" width="30" x="0" y="0" /><rect fill="lightblue" height="50" width="30" x="35" y="0" /><rect fill="lightblue" height="50" width="30" x="70" y="0" /><rect fill="lightblue" height="50" width="30" x="105" y="0" /><rect fill="lightblue" height="50" width="30" x="140" y="0" /><rect fill="lightblue" height="50" width="30" x="175" y="0" /><rect fill="lightblue" height="50" width="30" x="210" y="0" /><rect fill="lightblue" height="50" width="30" x="245" y="0" /><rect fill="lightblue" height="50" width="30" x="280" y="0" /><rect fill="lightblue" height="50" width="30" x="315" y="0" /><text font-family="Arial" font-size="1" x="0" y="1">a</text><text font-family="Arial" font-size="1" x="0.55" y="1">a</text><text font-family="Arial" font-size="1" x="1.1" y="1">a</text><text font-family="Arial" font-size="1" x="1.6500000000000001" y="1">a</text><text font-family="Arial" font-size="1" x="2.2" y="1">a</text><text font-family="Arial" font-size="1" x="2.75" y="1">a</text><text font-family="Arial" font-size="1" x="3.3" y="1">a</text><text font-family="Arial" font-size="1" x="3.8499999999999996" y="1">a</text><text font-family="Arial" font-size="1" x="4.3999999999999995" y="1">a</text><text font-family="Arial" font-size="1" x="4.949999999999999" y="1">a</text><text font-family="Arial" font-size="1" x="5.499999999999999" y="1">a</text><text font-family="Arial" font-size="1" x="6.049999999999999" y="1">a</text><text font-family="Arial" font-size="1" x="6.599999999999999" y="1">a</text><text font-family="Arial" font-size="1" x="7.149999999999999" y="1">a</text><text font-family="Arial" font-size="1" x="7.699999999999998" y="1">a</text><text font-family="Arial" font-size="1" x="8.25" y="1">a</text><text font-family="Arial" font-size="1" x="8.8" y="1">a</text><text font-family="Arial" font-size="1" x="9.350000000000001" y="1">a</text><text font-family="Arial" font-size="1" x="9.900000000000002" y="1">a</text><text font-family="Arial" font-size="1" x="10.450000000000003" y="1">a</text><text font-family="Arial" font-size="1" x="11.000000000000004" y="1">a</text><text font-family="Arial" font-size="1" x="11.550000000000004" y="1">a</text><text font-family="Arial" font-size="1" x="12.100000000000005" y="1">a</text><text font-family="Arial" font-size="1" x="12.650000000000006" y="1">a</text><text font-family="Arial" font-size="1" x="13.200000000000006" y="1">a</text><text font-family="Arial" font-size="1" x="13.750000000000007" y="1">a</text><text font-family="Arial" font-size="1" x="14.300000000000008" y="1">a</text><text font-family="Arial" font-size="1" x="14.850000000000009" y="1">a</text><text font-family="Arial" font-size="1" x="15.40000000000001" y="1">a</text><text font-family="Arial" font-size="1" x="15.95000000000001" y="1">a</text><text font-family="Arial" font-size="1" x="16.50000000000001" y="1">a</text><text font-family="Arial" font-size="1" x="17.05000000000001" y="1">a</text><text font-family="Arial" font-size="1" x="17.600000000000012" y="1">a</text><text font-family="Arial" font-size="1" x="18.150000000000013" y="1">a</text><text font-family="Arial" font-size="1" x="18.700000000000014" y="1">a</text><text font-family="Arial" font-size="1" x="19.250000000000014" y="1">a</text><text font-family="Arial" font-size="1" x="19.800000000000015" y="1">a</text><text font-family="Arial" font-size="1" x="20.350000000000016" y="1">a</text><text font-family="Arial" font-size="1" x="20.900000000000016" y="1">a</text><text font-family="Arial" font-size="1" x="21.450000000000017" y="1">a</text><text font-family="Arial" font-size="1" x="22.000000000000018" y="1">a</text><text font-family="Arial" font-size="1" x="22.55000000000002" y="1">a</text><text font-family="Arial" font-size="1" x="23.10000000000002" y="1">a</text><text font-family="Arial" font-size="1" x="23.65000000000002" y="1">a</text><text font-family="Arial" font-size="1" x="24.20000000000002" y="1">a</text><text font-family="Arial" font-size="1" x="24.75000000000002" y="1">a</text><text font-family="Arial" font-size="1" x="25.300000000000022" y="1">a</text><text font-family="Arial" font-size="1" x="25.850000000000023" y="1">a</text><text font-family="Arial" font-size="1" x="26.400000000000023" y="1">a</text><text font-family="Arial" font-size="1" x="26.950000000000024" y="1">a</text><text font-family="Arial" font-size="1" x="27.500000000000025" y="1">a</text><text font-family="Arial" font-size="1" x="28.050000000000026" y="1">a</text><text font-family="Arial" font-size="1" x="28.600000000000026" y="1">a</text><text font-family="Arial" font-size="1" x="29.150000000000027" y="1">a</text><text font-family="Arial" font-size="1" x="29.700000000000028" y="1">a</text><text font-family="Arial" font-size="1" x="30.25000000000003" y="1">a</text><text font-family="Arial" font-size="1" x="30.80000000000003" y="1">a</text><text font-family="Arial" font-size="1" x="31.35000000000003" y="1">a</text><text font-family="Arial" font-size="1" x="31.90000000000003" y="1">a</text><text font-family="Arial" font-size="1" x="32.45000000000003" y="1">a</text><text font-family="Arial" font-size="1" x="33.00000000000003" y="1">a</text><text font-family="Arial" font-size="1" x="33.550000000000026" y="1">a</text><text font-family="Arial" font-size="1" x="34.10000000000002" y="1">a</text><text font-family="Arial" font-size="1" x="34.65000000000002" y="1">a</text><text font-family="Arial" font-size="1" x="35.20000000000002" y="1">a</text><text font-family="Arial" font-size="1" x="35.750000000000014" y="1">a</text><text font-family="Arial" font-size="1" x="36.30000000000001" y="1">a</text><text font-family="Arial" font-size="1" x="36.85000000000001" y="1">a</text><text font-family="Arial" font-size="1" x="37.400000000000006" y="1">a</text><text font-family="Arial" font-size="1" x="37.95" y="1">a</text><text font-family="Arial" font-size="1" x="38.5" y="1">a</text><text font-family="Arial" font-size="1" x="39.05" y="1">a</text><text font-family="Arial" font-size="1" x="39.599999999999994" y="1">a</text><text font-family="Arial" font-size="1" x="40.14999999999999" y="1">a</text><text font-family="Arial" font-size="1" x="40.69999999999999" y="1">a</text><text font-family="Arial" font-size="1" x="41.249999999999986" y="1">a</text><text font-family="Arial" font-size="1" x="41.79999999999998" y="1">a</text><text font-family="Arial" font-size="1" x="42.34999999999998" y="1">a</text><text font-family="Arial" font-size="1" x="42.89999999999998" y="1">a</text><text font-family="Arial" font-size="1" x="43.449999999999974" y="1">a</text><text font-family="Arial" font-size="1" x="43.99999999999997" y="1">a</text><text font-family="Arial" font-size="1" x="44.54999999999997" y="1">a</text><text font-family="Arial" font-size="1" x="45.099999999999966" y="1">a</text><text font-family="Arial" font-size="1" x="45.64999999999996" y="1">a</text><text font-family="Arial" font-size="1" x="46.19999999999996" y="1">a</text><text font-family="Arial" font-size="1" x="46.74999999999996" y="1">a</text><text font-family="Arial" font-size="1" x="47.299999999999955" y="1">a</text><text font-family="Arial" font-size="1" x="47.84999999999995" y="1">a</text><text font-family="Arial" font-size="1" x="48.39999999999995" y="1">a</text><text font-family="Arial" font-size="1" x="48.949999999999946" y="1">a</text><text font-family="Arial" font-size="1" x="49.49999999999994" y="1">a</text><text font-family="Arial" font-size="1" x="50.04999999999994" y="1">a</text><text font-family="Arial" font-size="1" x="50.59999999999994" y="1">a</text><text font-family="Arial" font-size="1" x="51.149999999999935" y="1">a</text><text font-family="Arial" font-size="1" x="51.69999999999993" y="1">a</text><text font-family="Arial" font-size="1" x="52.24999999999993" y="1">a</text><text font-family="Arial" font-size="1" x="52.799999999999926" y="1">a</text><text font-family="Arial" font-size="1" x="53.34999999999992" y="1">a</text><text font-family="Arial" font-size="1" x="53.89999999999992" y="1">a</text><text font-family="Arial" font-size="1" x="54.44999999999992" y="1">a</text><text font-family="Arial" font-size="1" x="54.999999999999915" y="1">a</text><text font-family="Arial" font-size="1" x="55.54999999999991" y="1">a</text><text font-family="Arial" font-size="1" x="56.09999999999991" y="1">a</text><text font-family="Arial" font-size="1" x="56.649999999999906" y="1">a</text><text font-family="Arial" font-size="1" x="57.1999999999999" y="1">a</text><text font-family="Arial" font-size="1" x="57.7499999999999" y="1">a</text><text font-family="Arial" font-size="1" x="58.2999999999999" y="1">a</text><text font-family="Arial" font-size="1" x="58.849999999999895" y="1">a</text><text font-family="Arial" font-size="1" x="59.39999999999989" y="1">a</text><text font-family="Arial" font-size="1" x="59.94999999999989" y="1">a</text><text font-family="Arial" font-size="1" x="60.499999999999886" y="1">a</text><text font-family="Arial" font-size="1" x="61.04999999999988" y="1">a</text><text font-family="Arial" font-size="1" x="61.59999999999988" y="1">a</text><text font-family="Arial" font-size="1" x="62.14999999999988" y="1">a</text><text font-family="Arial" font-size="1" x="62.699999999999875" y="1">a</text><text font-family="Arial" font-size="1" x="63.24999999999987" y="1">a</text><text font-family="Arial" font-size="1" x="63.79999999999987" y="1">a</text><text font-family="Arial" font-size="1" x="64.34999999999987" y="1">a</text><text font-family="Arial" font-size="1" x="64.89999999999986" y="1">a</text><text font-family="Arial" font-size="1" x="65.44999999999986" y="1">a</text><text font-family="Arial" font-size="1" x="65.99999999999986" y="1">a</text><text font-family="Arial" font-size="1" x="66.54999999999986" y="1">a</text><text font-family="Arial" font-size="1" x="67.09999999999985" y="1">a</text><text font-family="Arial" font-size="1" x="67.64999999999985" y="1">a</text><text font-family="Arial" font-size="1" x="68.19999999999985" y="1">a</text><text font-family="Arial" font-size="1" x="68.74999999999984" y="1">a</text><text font-family="Arial" font-size="1" x="69.29999999999984" y="1">a</text><text font-family="Arial" font-size="1" x="69.84999999999984" y="1">a</text><text font-family="Arial" font-size="1" x="70.39999999999984" y="1">a</text><text font-family="Arial" font-size="1" x="70.94999999999983" y="1">a</text><text font-family="Arial" font-size="1" x="71.49999999999983" y="1">a</text><text font-family="Arial" font-size="1" x="72.04999999999983" y="1">a</text><text font-family="Arial" font-size="1" x="72.59999999999982" y="1">a</text><text font-family="Arial" font-size="1" x="73.14999999999982" y="1">a</text><text font-family="Arial" font-size="1" x="73.69999999999982" y="1">a</text><text font-family="Arial" font-size="1" x="74.24999999999982" y="1">a</text><text font-family="Arial" font-size="1" x="74.79999999999981" y="1">a</text><text font-family="Arial" font-size="1" x="75.34999999999981" y="1">a</text><text font-family="Arial" font-size="1" x="75.8999999999998" y="1">a</text><text font-family="Arial" font-size="1" x="76.4499999999998" y="1">a</text><text font-family="Arial" font-size="1" x="76.9999999999998" y="1">a</text><text font-family="Arial" font-size="1" x="77.5499999999998" y="1">a</text><text font-family="Arial" font-size="1" x="78.0999999999998" y="1">a</text><text font-family="Arial" font-size="1" x="78.64999999999979" y="1">a</text><text font-family="Arial" font-size="1" x="79.19999999999979" y="1">a</text><text font-family="Arial" font-size="1" x="79.74999999999979" y="1">a</text><text font-family="Arial" font-size="1" x="80.29999999999978" y="1">a</text><text font-family="Arial" font-size="1" x="80.84999999999978" y="1">a</text><text font-family="Arial" font-size="1" x="81.39999999999978" y="1">a</text><text font-family="Arial" font-size="1" x="81.94999999999978" y="1">a</text><text font-family="Arial" font-size="1" x="82.49999999999977" y="1">a</text><text font-family="Arial" font-size="1" x="83.04999999999977" y="1">a</text><text font-family="Arial" font-size="1" x="83.59999999999977" y="1">a</text><text font-family="Arial" font-size="1" x="84.14999999999976" y="1">a</text><text font-family="Arial" font-size="1" x="84.69999999999976" y="1">a</text><text font-family="Arial" font-size="1" x="85.24999999999976" y="1">a</text><text font-family="Arial" font-size="1" x="85.79999999999976" y="1">a</text><text font-family="Arial" font-size="1" x="86.34999999999975" y="1">a</text><text font-family="Arial" font-size="1" x="86.89999999999975" y="1">a</text><text font-family="Arial" font-size="1" x="87.44999999999975" y="1">a</text><text font-family="Arial" font-size="1" x="87.99999999999974" y="1">a</text><text font-family="Arial" font-size="1" x="88.54999999999974" y="1">a</text><text font-family="Arial" font-size="1" x="89.09999999999974" y="1">a</text><text font-family="Arial" font-size="1" x="89.64999999999974" y="1">a</text><text font-family="Arial" font-size="1" x="90.19999999999973" y="1">a</text><text font-family="Arial" font-size="1" x="90.74999999999973" y="1">a</text><text font-family="Arial" font-size="1" x="91.29999999999973" y="1">a</text><text font-family="Arial" font-size="1" x="91.84999999999972" y="1">a</text><text font-family="Arial" font-size="1" x="92.39999999999972" y="1">a</text><text font-family="Arial" font-size="1" x="92.94999999999972" y="1">a</text><text font-family="Arial" font-size="1" x="93.49999999999972" y="1">a</text><text font-family="Arial" font-size="1" x="94.04999999999971" y="1">a</text><text font-family="Arial" font-size="1" x="94.59999999999971" y="1">a</text><text font-family="Arial" font-size="1" x="95.14999999999971" y="1">a</text><text font-family="Arial" font-size="1" x="95.6999999999997" y="1">a</text><text font-family="Arial" font-size="1" x="96.2499999999997" y="1">a</text><text font-family="Arial" font-size="1" x="96.7999999999997" y="1">a</text><text font-family="Arial" font-size="1" x="97.3499999999997" y="1">a</text><text font-family="Arial" font-size="1" x="97.8999999999997" y="1">a</text><text font-family="Arial" font-size="1" x="98.44999999999969" y="1">a</text><text font-family="Arial" font-size="1" x="98.99999999999969" y="1">a</text><text font-family="Arial" font-size="1" x="99.54999999999968" y="1">a</text><text font-family="Arial" font-size="1" x="100.09999999999968" y="1">a</text><text font-family="Arial" font-size="1" x="100.64999999999968" y="1">a</text><text font-family="Arial" font-size="1" x="101.19999999999968" y="1">a</text><text font-family="Arial" font-size="1" x="101.74999999999967" y="1">a</text><text font-family="Arial" font-size="1" x="102.29999999999967" y="1">a</text><text font-family="Arial" font-size="1" x="102.84999999999967" y="1">a</text><text font-family="Arial" font-size="1" x="103.39999999999966" y="1">a</text><text font-family="Arial" font-size="1" x="103.94999999999966" y="1">a</text><text font-family="Arial" font-size="1" x="104.49999999999966" y="1">a</text><text font-family="Arial" font-size="1" x="105.04999999999966" y="1">a</text><text font-family="Arial" font-size="1" x="105.59999999999965" y="1">a</text><text font-family="Arial" font-size="1" x="106.14999999999965" y="1">a</text><text font-family="Arial" font-size="1" x="106.69999999999965" y="1">a</text><text font-family="Arial" font-size="1" x="107.24999999999964" y="1">a</text><text font-family="Arial" font-size="1" x="107.79999999999964" y="1">a</text><text font-family="Arial" font-size="1" x="108.34999999999964" y="1">a</text><text font-family="Arial" font-size="1" x="108.89999999999964" y="1">a</text><text font-family="Arial" font-size="1" x="109.44999999999963" y="1">a</text></svg>