<?xml version="1.0" encoding="utf-8" ?>
<svg baseProfile="full" height="5" version="1.1" width="33" xmlns="http://www.w3.org/2000/svg" xmlns:ev="http://www.w3.org/2001/xml-events" xmlns:xlink="http://www.w3.org/1999/xlink"><defs /><rect fill="lightblue" height="50" width="30" x="0" y="0" /><rect fill="lightblue" height="50" width="30" x="35" y="0" /><rect fill="lightblue" height="50" width="30" x="70" y="0" /><rect fill="lightblue" height="50" width="30" x="105" y="0" /><rect fill="lightblue" height="50" width="30" x="140" y="0" /><rect fill="lightblue" height="50" width="30" x="175" y="0" /><rect fill="lightblue" height="50" width="30" x="210" y="0" /><rect fill="lightblue" height="50" width="30" x="245" y="0" /><rect fill="lightblue" height="50" width="30" x="280" y="0" /><rect fill="lightblue" height="50" width="30" x="315" y="0" /><text font-family="Arial" font-size="1" x="0" y="1">a</text><text font-family="Arial" font-size="1" x="0.55" y="1">a</text><text font-family="Arial" font-size="1" x="1.1" y="1">a</text><text font-family="Arial" font-size="1" x="1.6500000000000001" y="1">a</text><text font-family="Arial" font-size="1" x="2.2" y="1">a</text><text font-family="Arial" font-size="1" x="2.75" y="1">a</text><text font-family="Arial" font-size="1" x="3.3" y="1">a</text><text font-family="Arial" font-size="1" x="3.8499999999999996" y="1">a</text><text font-family="Arial" font-size="1" x="4.3999999999999995" y="1">a</text><text font-family="Arial" font-size="1" x="4.949999999999999" y="1">a</text><text font-family="Arial" font-size="1" x="5.499999999999999" y="1">a</text><text font-family="Arial" font-size="1" x="6.049999999999999" y="1">a</text><text font-family="Arial" font-size="1" x="6.599999999999999" y="1">a</text><text font-family="Arial" font-size="1" x="7.149999999999999" y="1">a</text><text font-family="Arial" font-size="1" x="7.699999999999998" y="1">a</text><text font-family="Arial" font-size="1" x="8.25" y="1">a</text><text font-family="Arial" font-size="1" x="8.8" y="1">a</text><text font-family="Arial" font-size="1" x="9.350000000000001" y="1">a</text><text font-family="Arial" font-size="1" x="9.900000000000002" y="1">a</text><text font-family="Arial" font-size="1" x="10.450000000000003" y="1">a</text><text font-family="Arial" font-size="1" x="11.000000000000004" y="1"> </text><text font-family="Arial" font-size="1" x="11.300000000000004" y="1">a</text><text font-family="Arial" font-size="1" x="11.850000000000005" y="1">a</text><text font-family="Arial" font-size="1" x="12.400000000000006" y="1">a</text><text font-family="Arial" font-size="1" x="12.950000000000006" y="1">a</text><text font-family="Arial" font-size="1" x="13.500000000000007" y="1">a</text><text font-family="Arial" font-size="1" x="14.050000000000008" y="1">a</text><text font-family="Arial" font-size="1" x="14.600000000000009" y="1">a</text><text font-family="Arial" font-size="1" x="15.15000000000001" y="1">a</text><text font-family="Arial" font-size="1" x="15.70000000000001" y="1">a</text><text font-family="Arial" font-size="1" x="16.25000000000001" y="1">a</text><text font-family="Arial" font-size="1" x="16.80000000000001" y="1">a</text><text font-family="Arial" font-size="1" x="17.350000000000012" y="1">a</text><text font-family="Arial" font-size="1" x="17.900000000000013" y="1">a</text><text font-family="Arial" font-size="1" x="18.450000000000014" y="1">a</text><text font-family="Arial" font-size="1" x="19.000000000000014" y="1">a</text><text font-family="Arial" font-size="1" x="19.550000000000015" y="1">a</text><text font-family="Arial" font-size="1" x="20.100000000000016" y="1">a</text><text font-family="Arial" font-size="1" x="20.650000000000016" y="1">a</text><text font-family="Arial" font-size="1" x="21.200000000000017" y="1">a</text><text font-family="Arial" font-size="1" x="21.750000000000018" y="1">a</text><text font-family="Arial" font-size="1" x="22.30000000000002" y="1">a</text><text font-family="Arial" font-size="1" x="22.85000000000002" y="1">a</text><text font-family="Arial" font-size="1" x="23.40000000000002" y="1">a</text><text font-family="Arial" font-size="1" x="23.95000000000002" y="1">a</text><text font-family="Arial" font-size="1" x="24.50000000000002" y="1">a</text><text font-family="Arial" font-size="1" x="25.050000000000022" y="1">a</text><text font-family="Arial" font-size="1" x="25.600000000000023" y="1">a</text><text font-family="Arial" font-size="1" x="26.150000000000023" y="1">a</text><text font-family="Arial" font-size="1" x="26.700000000000024" y="1">a</text><text font-family="Arial" font-size="1" x="27.250000000000025" y="1"> </text><text font-family="Arial" font-size="1" x="27.550000000000026" y="1">a</text><text font-family="Arial" font-size="1" x="28.100000000000026" y="1">a</text><text font-family="Arial" font-size="1" x="28.650000000000027" y="1">a</text><text font-family="Arial" font-size="1" x="29.200000000000028" y="1">a</text><text font-family="Arial" font-size="1" x="29.75000000000003" y="1">a</text><text font-family="Arial" font-size="1" x="30.30000000000003" y="1">a</text><text font-family="Arial" font-size="1" x="30.85000000000003" y="1">a</text><text font-family="Arial" font-size="1" x="31.40000000000003" y="1">a</text><text font-family="Arial" font-size="1" x="31.95000000000003" y="1">a</text><text font-family="Arial" font-size="1" x="32.50000000000003" y="1">a</text><text font-family="Arial" font-size="1" x="33.050000000000026" y="1">a</text><text font-family="Arial" font-size="1" x="33.60000000000002" y="1">a</text><text font-family="Arial" font-size="1" x="34.15000000000002" y="1">a</text><text font-family="Arial" font-size="1" x="34.70000000000002" y="1">a</text><text font-family="Arial" font-size="1" x="35.250000000000014" y="1">a</text><text font-family="Arial" font-size="1" x="35.80000000000001" y="1">a</text><text font-family="Arial" font-size="1" x="36.35000000000001" y="1">a</text><text font-family="Arial" font-size="1" x="36.900000000000006" y="1">a</text><text font-family="Arial" font-size="1" x="37.45" y="1">a</text><text font-family="Arial" font-size="1" x="38.0" y="1">a</text><text font-family="Arial" font-size="1" x="38.55" y="1">a</text></svg>